<svg id="Layer_1" data-name="Layer 1" xmlns="http://www.w3.org/2000/svg" viewBox="0 0 500 500" width="250" height="250" class="illustration"><defs><style>.cls-1{fill:#24285b;}.cls-2{fill:#ffd44d;}.cls-3{fill:#8e4728;}.cls-4{fill:#9c5631;}.cls-5{fill:#f9bb0d;}.cls-6{fill:#0099f5;}</style></defs><title>Digital Nomad</title><path class="cls-1" d="M291.65,186.86H162.73V136a64.46,64.46,0,1,1,128.92,0ZM173.16,176.43H281.22V136a54,54,0,0,0-108.06,0Z"></path><rect class="cls-2" x="159.75" y="129.36" width="16.39" height="18.49" rx="5.07"></rect><rect class="cls-2" x="278.24" y="129.46" width="16.39" height="18.49" rx="5.07"></rect><rect class="cls-3" x="65.21" y="219.39" width="323.96" height="190.81" rx="15.34"></rect><path class="cls-4" d="M212.07,410.2,80.55,409.11a15.34,15.34,0,0,1-15.34-15.34V302A15.34,15.34,0,0,1,80.55,286.7H328.21A15.34,15.34,0,0,1,343.55,302l-26.41,43.72C317.14,354.23,285.76,277.58,212.07,410.2Z"></path><path class="cls-4" d="M55,138.66H399.4a0,0,0,0,1,0,0V254.72a17,17,0,0,1-17,17H72a17,17,0,0,1-17-17V138.66a0,0,0,0,1,0,0Z"></path><rect class="cls-1" x="137.23" y="254.15" width="12.89" height="46.86" rx="3.99"></rect><rect class="cls-5" x="126.08" y="271.83" width="35.2" height="22.31" rx="6.91"></rect><rect class="cls-2" x="126.08" y="271.71" width="30.24" height="22.31" rx="6.91"></rect><rect class="cls-1" x="304.25" y="254.15" width="12.89" height="46.86" rx="3.99"></rect><rect class="cls-5" x="293.1" y="271.83" width="35.2" height="22.31" rx="6.91"></rect><rect class="cls-2" x="293.1" y="271.71" width="30.24" height="22.31" rx="6.91"></rect><path class="cls-6" d="M189.38,428.5a13.5,13.5,0,0,1-10-22.62l90.21-98.53a13.5,13.5,0,0,1,18.65-1.22l28.46,23.94,87-78.65a13.5,13.5,0,0,1,18.11,20L326.11,358a13.5,13.5,0,0,1-17.74.31L280.8,335.13l-81.46,89A13.48,13.48,0,0,1,189.38,428.5Z"></path><path class="cls-6" d="M424.42,322.49c-.49,0-1,0-1.5-.08A13.51,13.51,0,0,1,411,307.51l5.77-52.29L364.46,261a13.5,13.5,0,1,1-3-26.84l69-7.62a13.52,13.52,0,0,1,14.9,14.9l-7.62,69A13.5,13.5,0,0,1,424.42,322.49Z"></path></svg>