<svg xmlns="http://www.w3.org/2000/svg" viewBox="0 0 100 100" width="500" height="500" class="illustration"><defs><style>.cls-1,.cls-8{fill:#0099f5;}.cls-1,.cls-2,.cls-3,.cls-4,.cls-6,.cls-9{stroke:#231f20;stroke-width:1.5px;}.cls-1,.cls-3,.cls-4,.cls-6{stroke-linejoin:bevel;}.cls-2,.cls-5{fill:#ffd44d;}.cls-2,.cls-9{stroke-miterlimit:10;}.cls-3{fill:#0064f4;}.cls-4,.cls-7,.cls-9{fill:#f0457d;}.cls-6{fill:none;}</style></defs><g id="Layer_2" data-name="Layer 2"><circle class="cls-1" cx="48.34" cy="41.77" r="9.22"></circle><line class="cls-2" x1="36.9" y1="64.73" x2="36.9" y2="82.49"></line><path class="cls-1" d="M28.69,73.61v8.88H68V65.88a10.64,10.64,0,0,0-1.54-5.58s0,0,0,0a10.72,10.72,0,0,0-7.3-5,9.52,9.52,0,0,0-1.92-.17H39.45a10.81,10.81,0,0,0-5,1.23,10.78,10.78,0,0,0-5.76,9.56v.74"></path><line class="cls-2" x1="38.19" y1="69.95" x2="37.01" y2="82.49"></line><line class="cls-2" x1="58.47" y1="69.95" x2="59.66" y2="82.49"></line><rect class="cls-2" x="35.68" y="79.39" width="28.37" height="3.42"></rect><polyline class="cls-2" points="26.05 60.5 50.81 60.5 54.72 82.81 25.71 82.81 21.8 60.5"></polyline><path class="cls-3" d="M73.77,21.83H86.46a5.46,5.46,0,0,1,5.46,5.46V37.82a5.46,5.46,0,0,1-5.46,5.46H73.77a10,10,0,0,1-10-10V31.82a10,10,0,0,1,10-10Z"></path><path class="cls-4" d="M88.45,21.83H70.14c-1.92,0-6.36,1.56-6.36,3.48v14.5c0,1.92,4.44,3.48,6.36,3.48H71l-2.64,5.57H71l5.57-5.57H88.45a3.48,3.48,0,0,0,3.48-3.48V25.31A3.48,3.48,0,0,0,88.45,21.83Z"></path><path class="cls-5" d="M85.81,21.83H64.63a3.48,3.48,0,0,0-3.48,3.48v14.5a3.48,3.48,0,0,0,3.48,3.48h3.76v5.57L74,43.29H85.81a3.48,3.48,0,0,0,3.48-3.48V25.31A3.48,3.48,0,0,0,85.81,21.83Z"></path><path class="cls-6" d="M62.17,22.85a3.45,3.45,0,0,1,2.46-1H85.81a3.48,3.48,0,0,1,3.48,3.48v14.5a3.48,3.48,0,0,1-3.48,3.48H74l-5.58,5.57V43.29H64.63a3.48,3.48,0,0,1-3.48-3.48V28.37"></path><path class="cls-7" d="M82.07,38.19a3.73,3.73,0,0,1-1.31,1,3.92,3.92,0,0,1-1.64.34A4.43,4.43,0,0,1,77,39a9.91,9.91,0,0,1-2.21-1.82A6.08,6.08,0,0,1,72,36.27,5.45,5.45,0,0,1,70,34.22a5.67,5.67,0,0,1-.7-2.82,5.8,5.8,0,0,1,.79-3,5.55,5.55,0,0,1,2.19-2.08,6.76,6.76,0,0,1,6.23,0,5.6,5.6,0,0,1,2.19,2.07,5.81,5.81,0,0,1,.79,3A5.7,5.7,0,0,1,81,33.88a5.55,5.55,0,0,1-1.48,1.94A6,6,0,0,1,77.27,37a3.52,3.52,0,0,0,.92.72,2.07,2.07,0,0,0,1,.23A2.54,2.54,0,0,0,81.1,37ZM72,33.45a3.66,3.66,0,0,0,1.42,1.42,4.32,4.32,0,0,0,4.07,0,3.72,3.72,0,0,0,1.42-1.42,4.28,4.28,0,0,0,0-4.09,3.68,3.68,0,0,0-1.42-1.43,4.39,4.39,0,0,0-4.07,0A3.62,3.62,0,0,0,72,29.36a4.28,4.28,0,0,0,0,4.09Z"></path><path class="cls-3" d="M16.6,32H27.43a4.66,4.66,0,0,1,4.66,4.66v9a4.66,4.66,0,0,1-4.66,4.66H16.6a8.53,8.53,0,0,1-8.53-8.53V40.56A8.53,8.53,0,0,1,16.6,32Z" transform="translate(40.16 82.36) rotate(-180)"></path><path class="cls-4" d="M11,32H26.66c1.64,0,5.43,1.33,5.43,3V47.37c0,1.64-3.79,3-5.43,3H25.9l2.25,4.76H25.9l-4.75-4.76H11a3,3,0,0,1-3-3V35A3,3,0,0,1,11,32Z"></path><path class="cls-5" d="M13.29,32H31.36a3,3,0,0,1,3,3V47.37a3,3,0,0,1-3,3H28.15v4.76l-4.76-4.76H13.29a3,3,0,0,1-3-3V35A3,3,0,0,1,13.29,32Z"></path><path class="cls-6" d="M33.46,32.9a2.94,2.94,0,0,0-2.1-.87H13.29a3,3,0,0,0-3,3V47.37a3,3,0,0,0,3,3h10.1l4.76,4.76V50.33h3.21a3,3,0,0,0,3-3V40.1"></path><path class="cls-8" d="M24.56,44.09H19.15l-1.07,2.5H16l4.87-10.81h2l4.88,10.81h-2.1Zm-.67-1.58-2-4.73-2,4.73Z"></path><line class="cls-9" x1="77.85" y1="82.81" x2="64.05" y2="82.81"></line><line class="cls-9" x1="31.19" y1="82.81" x2="17.39" y2="82.81"></line></g></svg>