<svg xmlns="http://www.w3.org/2000/svg" viewBox="0 0 100 100" width="250" height="250" class="illustration"><defs><style>.cls-1{fill:#0099f5;}.cls-2{fill:#231f20;}.cls-2,.cls-4,.cls-5{stroke:#231f20;stroke-width:1.5px;}.cls-2,.cls-4{stroke-miterlimit:10;}.cls-3{fill:#ffd44d;}.cls-4{fill:none;}.cls-5{fill:#f0457d;stroke-linejoin:bevel;}</style></defs><g id="Layer_2" data-name="Layer 2"><path class="cls-1" d="M24,27.82H79.6a2.3,2.3,0,0,1,2.3,2.3V64.48a0,0,0,0,1,0,0H21.75a0,0,0,0,1,0,0V30.12A2.3,2.3,0,0,1,24,27.82Z"></path><rect class="cls-2" x="31.29" y="47.08" width="10.24" height="17.4"></rect><rect class="cls-2" x="48.15" y="42.17" width="10.24" height="22.31"></rect><rect class="cls-2" x="65" y="36.49" width="10.24" height="28"></rect><polygon class="cls-3" points="11.89 74.23 91.76 74.23 81.9 64.48 21.75 64.48 11.89 74.23"></polygon><path class="cls-4" d="M58,27.82H79.61a2.29,2.29,0,0,1,2.29,2.29V64.48H21.75V30.11A2.29,2.29,0,0,1,24,27.82H45.24"></path><line class="cls-4" x1="11.89" y1="74.23" x2="91.76" y2="74.23"></line><path class="cls-4" d="M91.76,74.23,81.9,64.48H21.75l-9.86,9.75h0a2.57,2.57,0,0,0,2.58,2.58H89.18a2.58,2.58,0,0,0,2.58-2.58Z"></path><rect class="cls-5" x="28.85" y="47.08" width="10.24" height="17.4"></rect><rect class="cls-5" x="45.7" y="42.17" width="10.24" height="22.31"></rect><rect class="cls-5" x="62.56" y="36.49" width="10.24" height="28"></rect></g></svg>