<?xml version="1.0" encoding="utf-8"?>
<!-- Generator: Adobe Illustrator 26.4.1, SVG Export Plug-In . SVG Version: 6.00 Build 0)  -->
<svg version="1.1" id="Capa_1" xmlns="http://www.w3.org/2000/svg" xmlns:xlink="http://www.w3.org/1999/xlink" x="0px" y="0px"
	 viewBox="0 0 1080 1080" style="enable-background:new 0 0 1080 1080;" xml:space="preserve">
<style type="text/css">
	.st0{fill:#50C2EC;}
	.st1{fill:#032831;}
	.st2{fill:#E1F2FB;}
</style>
<g>
	<g>
		<path class="st0" d="M1010.83,244.03c-0.27-89.52-75.63-163.24-165.24-163.29c-203.14-0.11-406.27-0.01-609.41,0.06
			c-6.43,0-12.94,0.08-19.28,1C127.32,94.84,68.95,162.12,68.85,253.26c-0.22,190.6-0.07,381.21-0.07,571.81
			c0,12.91,0.65,25.78,3.24,38.46c16.56,81.03,83.36,135.68,166.11,135.74c100.76,0.08,201.52,0.02,302.29,0.03
			c99.96,0.01,199.91,0.01,299.87,0.01c1.61,0,3.22-0.01,4.84-0.02c90.53-0.55,165.49-73.87,165.74-164.1
			C1011.4,638.13,1011.42,441.08,1010.83,244.03z M971.36,816.52c-0.05,82.98-60.41,143.21-143.42,143.3
			c-96.31,0.1-192.61,0.02-288.92,0.02c0-0.02,0-0.04,0-0.07c-95.1,0-190.2,0.03-285.29-0.01
			c-84.15-0.03-144.24-57.58-144.92-141.68c-1.05-130.52-0.4-261.06-0.43-391.59c-0.01-53.58,1.05-107.19-0.13-160.74
			c-1.87-84.76,65.81-146.99,148.78-146.27c191.39,1.65,382.8,0.43,574.21,0.64c68.29,0.08,124.35,46.24,137.73,112.83
			c1.65,8.23,2.36,16.78,2.37,25.19C971.45,444.26,971.48,630.39,971.36,816.52z"/>
		<path class="st1" d="M539.02,959.78c-95.1,0-190.2,0.03-285.29-0.01c-84.15-0.03-144.24-57.58-144.92-141.68
			c-1.05-130.52-0.4-261.06-0.43-391.59c-0.01-53.58,1.05-107.19-0.13-160.74c-1.87-84.76,65.81-146.99,148.78-146.27
			c191.39,1.65,382.8,0.43,574.21,0.64c68.29,0.08,124.35,46.24,137.73,112.83c1.65,8.23,2.36,16.78,2.37,25.19
			c0.12,186.13,0.15,372.26,0.03,558.38c-0.05,82.98-60.41,143.21-143.42,143.3c-96.31,0.1-192.61,0.02-288.92,0.02
			C539.02,959.82,539.02,959.8,539.02,959.78z"/>
	</g>
	<path class="st2" d="M595.81,676.06c0.04-5.92,0.08-11.85,0.11-17.77c0.04-7.03-1.04-18.07,9.19-11.89
		c23.65,14.28,49.41,21.2,77.05,20.45c6.37-0.17,12.95-0.87,19.01-2.71c24.1-7.34,30.01-31.09,12.25-48.87
		c-12.71-12.72-28.77-20.5-44.52-28.52c-11.14-5.67-21.93-11.82-32.15-19.01c-31.18-21.93-45.34-51.94-39.95-89.61
		c5.68-39.67,30.33-64.16,67.9-74.86c34.52-9.83,69.26-6.81,103.58,3.05c11.43,3.28,10.62,12.03,10.62,22.12
		c0,13.22,0,26.43,0.01,39.65c0,1.51-0.02,3.09-0.73,4.43c-2.05,3.82-7.25,1.22-9.94-0.17c-20.05-10.36-41.64-14.52-64.08-14.56
		c-4.01-0.01-8.07,0.3-12.01,0.97c-13.46,2.32-25.12,7.71-28.48,22.32c-3.29,14.28,5.08,23.55,15.81,31.24
		c15.76,11.3,33.56,18.96,50.37,28.38c18.38,10.3,35.77,22.04,47.89,39.76c34.34,50.15,10.28,120.61-48.41,140.04
		c-40.49,13.4-80.9,9.71-120.76-4.25c-11.66-4.08-12.94-13.15-12.86-24.35C595.74,686.61,595.78,681.34,595.81,676.06z"/>
	<path class="st2" d="M435.94,290.72c-41.48-3.77-82.89-0.63-124.34-0.09c-11.56,0.15-15.16,3.7-15.08,15.3
		c0.47,67.25,0.23,134.51,0.23,201.77c0,67.66,0.16,135.32-0.19,202.98c-0.05,10.05,4.45,11.3,13.35,11.12
		c12.48-0.26,25,0.02,37.49,0.03c11.14,0.01,19.56,1.44,19.39-12.1c-0.58-44.3-0.05-88.6-0.39-132.9
		c-0.06-7.98,2.2-10.42,10.22-10.03c13.65,0.66,27.41,0.88,41.03-0.06c72.04-4.96,135.63-43.46,140.55-133.07
		C562.57,353.68,515.89,297.99,435.94,290.72z M410.21,504.02c-11.65,0.51-23.35-0.16-35,0.29c-6.86,0.26-8.92-2.2-8.8-8.99
		c0.38-22.53,0.14-45.06,0.14-67.6c0-22.13,0.02-44.26-0.01-66.39c-0.01-4.57-0.32-8.91,6.37-9.13c21.7-0.68,43.44-2.4,64.74,3.74
		c25.37,7.32,41.34,23.49,47.32,49.48C497.76,461.06,467.24,501.54,410.21,504.02z"/>
</g>
</svg>
