<svg id="Layer_1" data-name="Layer 1" xmlns="http://www.w3.org/2000/svg" viewBox="0 0 500 500" width="250" height="250" class="illustration"><defs><style>.cls-1{fill:#e2e2e2;}.cls-2{opacity:0.09;isolation:isolate;}.cls-3{fill:#f2f2f2;}.cls-4{fill:#f0457d;}.cls-5{fill:#353c72;}.cls-6{fill:#0099f5;}.cls-7{fill:#fff;}</style></defs><title>Contact Us</title><path class="cls-1" d="M319.92,312.33H182.1a9.89,9.89,0,0,0-7.26,3.17L55,444.46a9.91,9.91,0,0,0,7.26,16.66H437.78a9.91,9.91,0,0,0,7.32-16.6l-117.87-129A9.89,9.89,0,0,0,319.92,312.33Z"></path><path class="cls-2" d="M393.83,388.69,327,315.56a9.89,9.89,0,0,0-7.31-3.23H181.86a9.89,9.89,0,0,0-7.26,3.17l-68.43,73.61a216.86,216.86,0,0,0,287.66-.42Z"></path><circle class="cls-3" cx="250.02" cy="234.19" r="195.3"></circle><path class="cls-4" d="M250.36,387.17A153,153,0,0,1,99.63,260.52a31.74,31.74,0,0,0-31.28-26.33H62.27a7.09,7.09,0,0,0-7.07,7.38C59.08,346,145,429.49,250.36,429.49S441.64,346,445.52,241.57a7.09,7.09,0,0,0-7.08-7.38h0A38.89,38.89,0,0,0,400.23,265,153,153,0,0,1,250.36,387.17Z"></path><circle class="cls-5" cx="250" cy="234.07" r="107.41"></circle><circle class="cls-6" cx="250.36" cy="234.07" r="78.26"></circle><circle class="cls-5" cx="250.94" cy="234.65" r="58.48"></circle><circle class="cls-6" cx="250" cy="234.07" r="41.42"></circle><path class="cls-7" d="M250,262.68a4.5,4.5,0,0,1,0-9,19.64,19.64,0,0,0,19.61-19.61,4.5,4.5,0,0,1,9,0A28.65,28.65,0,0,1,250,262.68Z"></path><path class="cls-7" d="M225.89,238.57a4.5,4.5,0,0,1-4.5-4.5A28.65,28.65,0,0,1,250,205.46a4.5,4.5,0,0,1,0,9,19.64,19.64,0,0,0-19.61,19.61A4.49,4.49,0,0,1,225.89,238.57Z"></path><circle class="cls-4" cx="250.36" cy="82.54" r="11.81"></circle></svg>